<?xml version="1.0" encoding="utf-8"?>
<svg xmlns="http://www.w3.org/2000/svg" viewBox="0 0 100 100" width="400" height="400">
  <path fill="#31c4f3" d="M88.548,46.496L53.504,11.452c-1.935-1.935-5.073-1.935-7.009,0L11.452,46.496 c-1.935,1.935-1.935,5.073,0,7.009l35.044,35.044c1.935,1.935,5.073,1.935,7.009,0l35.044-35.044 C90.484,51.569,90.484,48.431,88.548,46.496z M50,60L40,50l10-10l10,10L50,60z" />
  <path fill="#3070b7" d="M88.548,46.496L65.593,23.54L49.5,39.5L60,50L50,60l16.026,16.026l22.522-22.522 C90.484,51.569,90.484,48.431,88.548,46.496z" />
  <path fill="#375ca9" d="M33.974,76.026l12.522,12.522c1.935,1.935,5.073,1.935,7.009,0l12.522-12.522L50,60L33.974,76.026z" />
  <g>
    <path fill="#1f212b" d="M50,90.997c-1.525,0-3.05-0.581-4.211-1.742L10.745,54.211c-2.322-2.322-2.322-6.101,0-8.423 l35.044-35.044c2.322-2.322,6.101-2.322,8.423,0l35.044,35.044c2.322,2.322,2.322,6.101,0,8.423L54.211,89.255 C53.05,90.417,51.525,90.997,50,90.997z M50,11.002c-1.013,0-2.026,0.386-2.797,1.157L12.159,47.203 c-1.542,1.542-1.542,4.052,0,5.595l35.044,35.044c1.543,1.542,4.052,1.542,5.595,0l35.044-35.044c1.542-1.542,1.542-4.052,0-5.595 L52.797,12.159C52.026,11.388,51.013,11.002,50,11.002z" />
    <path fill="#1f212b" d="M50,61c-0.256,0-0.512-0.098-0.707-0.293l-10-10c-0.391-0.391-0.391-1.023,0-1.414l10-10 c0.391-0.391,1.023-0.391,1.414,0l10,10c0.391,0.391,0.391,1.023,0,1.414l-10,10C50.512,60.902,50.256,61,50,61z M41.414,50 L50,58.586L58.586,50L50,41.414L41.414,50z" />
    <polygon fill="#1f212b" points="50,40 49.293,39.293 65.301,23.285 66.026,23.974" />
    <rect width="22.665" height="1" x="31.008" y="67.866" fill="#1f212b" transform="rotate(-45.001 42.34 68.367)" />
    <path fill="#1f212b" d="M56.5,67.707c-0.128,0-0.256-0.049-0.354-0.146l-6.854-6.854L50,60l6.854,6.854 c0.195,0.195,0.195,0.512,0,0.707C56.756,67.658,56.628,67.707,56.5,67.707z" />
    <path fill="#1f212b" d="M60.5,71.707c-0.128,0-0.256-0.049-0.354-0.146l-2-2c-0.195-0.195-0.195-0.512,0-0.707 s0.512-0.195,0.707,0l2,2c0.195,0.195,0.195,0.512,0,0.707C60.756,71.658,60.628,71.707,60.5,71.707z" />
    <path fill="#1f212b" d="M63.5,74.707c-0.128,0-0.256-0.049-0.354-0.146l-1-1c-0.195-0.195-0.195-0.512,0-0.707 s0.512-0.195,0.707,0l1,1c0.195,0.195,0.195,0.512,0,0.707C63.756,74.658,63.628,74.707,63.5,74.707z" />
  </g>
</svg>