<?xml version="1.0" encoding="utf-8"?>
<svg xmlns="http://www.w3.org/2000/svg" viewBox="0 0 50 50" width="500" height="500">
  <path d="M25 2C12.318 2 2 12.318 2 25C2 37.682 12.318 48 25 48C37.682 48 48 37.682 48 25C48 12.318 37.682 2 25 2 z M 25 11C28.364 11 31 13.636 31 17L31 19L29 19L29 17C29 14.757 27.243 13 25 13C22.757 13 21 14.757 21 17L21 19L19 19L19 17C19 13.636 21.636 11 25 11 z M 18 21L19 21L21 21L29 21L31 21L32 21C33.1 21 34 21.9 34 23L34 33C34 34.1 33.1 35 32 35L18 35C16.9 35 16 34.1 16 33L16 23C16 21.9 16.9 21 18 21 z M 25 25 A 2 2 0 0 0 23 27 A 2 2 0 0 0 24 28.730469L24 30C24 30.6 24.4 31 25 31C25.6 31 26 30.6 26 30L26 28.728516 A 2 2 0 0 0 27 27 A 2 2 0 0 0 25 25 z" fill="#FFFFFF" />
</svg>