<?xml version="1.0" encoding="utf-8"?>
<svg xmlns="http://www.w3.org/2000/svg" viewBox="0 0 24 24" width="384" height="384">
  <path d="M19,20H5c-1.657,0-3-1.343-3-3V7c0-1.657,1.343-3,3-3h14c1.657,0,3,1.343,3,3v10C22,18.657,20.657,20,19,20z" opacity=".35" fill="#FFFFFF" />
  <path d="M19,14.182c0,1.265-0.627,2.739-2.847,2.739h-1.921c-0.699,0-1.266-0.567-1.266-1.266V8.586c0-0.699,0.567-1.266,1.266-1.266h1.609c1.743,0,2.834,0.827,2.834,2.468c0,0.569,0.018,1.41-1.193,2.102v0.026C17.662,11.963,19,12.372,19,14.182z M16.763,10.134c0-0.797-0.515-1.024-1.045-1.024h-0.732v2.088h0.746C16.34,11.199,16.763,10.815,16.763,10.134z M16.939,13.985c0-0.604-0.324-1.2-1.167-1.2h-0.787v2.345h0.814C16.599,15.13,16.939,14.584,16.939,13.985z" fill="#FFFFFF" />
  <path d="M8.396,16.921L8.396,16.921c-0.809,0-1.513-0.554-1.703-1.341L5.032,8.701C4.862,7.997,5.395,7.32,6.12,7.32h0.102c0.539,0,1.002,0.385,1.1,0.915l1.132,6.109h0.028l1.12-6.107c0.097-0.531,0.561-0.917,1.101-0.917h0c0.726,0,1.26,0.681,1.087,1.386l-1.691,6.881C9.905,16.37,9.203,16.921,8.396,16.921z" fill="#FFFFFF" />
</svg>